<?xml version="1.0" standalone="no"?>
<!DOCTYPE svg PUBLIC "-//W3C//DTD SVG 20010904//EN"
 "http://www.w3.org/TR/2001/REC-SVG-20010904/DTD/svg10.dtd">
<svg version="1.0" xmlns="http://www.w3.org/2000/svg"
 width="266.000000pt" height="266.000000pt" viewBox="0 0 266.000000 266.000000"
 preserveAspectRatio="xMidYMid meet">
<metadata>
Created by potrace 1.11, written by Peter Selinger 2001-2013
</metadata>
<g transform="translate(0.000000,266.000000) scale(0.100000,-0.100000)"
fill="#000000" stroke="none">
<path d="M1219 2596 c-2 -2 -30 -6 -61 -10 -113 -11 -266 -60 -390 -122 -297
-149 -514 -398 -627 -717 -31 -89 -38 -114 -47 -176 -2 -19 -9 -52 -14 -74
-13 -60 -5 -310 13 -399 108 -526 505 -915 1037 -1013 111 -21 363 -11 495 18
267 61 526 227 701 448 138 173 233 395 262 604 13 98 7 336 -12 425 -77 368
-300 676 -621 856 -38 22 -90 48 -115 58 -25 10 -54 22 -65 27 -39 16 -111 37
-165 48 -30 6 -66 14 -80 17 -30 7 -305 16 -311 10z"/>
</g>
</svg>
